<svg width="339" height="54" viewBox="0 0 339 54" fill="none" xmlns="http://www.w3.org/2000/svg">
<g clip-path="url(#clip0)">
<path d="M177.587 33.5075C180.804 33.5075 183.412 30.9069 183.412 27.699C183.412 24.491 180.804 21.8904 177.587 21.8904C174.37 21.8904 171.762 24.491 171.762 27.699C171.762 30.9069 174.37 33.5075 177.587 33.5075Z" fill="#171717"/>
<path d="M0 0H20.5975C26.8342 0 29.9525 2.82295 29.9525 8.47271V45.5273C29.9525 51.1771 26.8342 54 20.5975 54H0V0ZM19.9955 44.5011V9.49889C19.9955 8.58501 19.8247 7.97318 19.4791 7.65952C19.1373 7.34586 18.5043 7.19096 17.5917 7.19096H9.87156V46.8129H17.5956C18.5082 46.8129 19.1412 46.658 19.4829 46.3405C19.8247 46.0307 19.9955 45.415 19.9955 44.5011Z" fill="#171717"/>
<path d="M63.338 0H73.2096V45.5273C73.2096 51.1771 70.0912 54 63.8545 54H53.3849C47.1482 54 44.0298 51.1771 44.0298 45.5273V0H53.9014V44.1603C53.9014 45.0742 54.0722 45.6861 54.4179 45.9997C54.7596 46.3134 55.3887 46.4683 56.3052 46.4683H60.8526C61.8235 46.4683 62.4837 46.3134 62.8254 45.9997C63.1671 45.6861 63.3419 45.0742 63.3419 44.1603V0H63.338Z" fill="#171717"/>
<path d="M108.568 0H117.581V54H108.308L96.7196 18.2272V54H87.6208V0H97.1467L108.56 35.2578V0H108.568Z" fill="#171717"/>
<path d="M132.167 54V0H142.039V54H132.167ZM163.922 0L152.765 26.8703L163.836 54H153.196L142.466 26.8703L153.281 0H163.922Z" fill="#171717"/>
<path d="M220.223 0V7.53173H210.697V54.0039H200.825V7.53173H191.385V0H220.223Z" fill="#171717"/>
<path d="M240.906 32.9499V54.0039H231.034V0H250.944C257.181 0 260.299 2.82295 260.299 8.47271V24.4772C260.299 29.155 258.21 31.8927 254.035 32.6943L263.049 54.0039H252.408L244.168 32.9499H240.906ZM240.906 7.53173V25.6737H248.028C248.94 25.6737 249.573 25.5188 249.915 25.2013C250.257 24.8876 250.432 24.2758 250.432 23.3619V9.84353C250.432 8.93353 250.261 8.31782 249.915 8.00416C249.573 7.6905 248.94 7.53173 248.028 7.53173H240.906Z" fill="#171717"/>
<path d="M284.159 46.4683H300.636V54H274.206V0H299.953V7.53173H284.159V22.51H297.463V30.1269H284.159V46.4683Z" fill="#171717"/>
<path d="M322.523 46.4683H339V54H312.566V0H338.313V7.53173H322.519V22.51H335.823V30.1269H322.519V46.4683H322.523Z" fill="#171717"/>
</g>
<defs>
<clipPath id="clip0">
<rect width="339" height="54" fill="white"/>
</clipPath>
</defs>
</svg>
